<svg width="77" height="146" viewBox="0 0 77 146" fill="none" xmlns="http://www.w3.org/2000/svg">
<path d="M64.846 11.796C64.286 10.8813 64.006 9.71467 64.006 8.296C64.006 6.87733 64.2907 5.74333 64.86 4.894C65.4387 4.03533 66.2834 3.606 67.394 3.606C68.514 3.606 69.354 4.03533 69.914 4.894C70.4834 5.74333 70.768 6.87733 70.768 8.296C70.768 9.71467 70.488 10.8813 69.928 11.796C69.368 12.7013 68.5234 13.154 67.394 13.154C66.2647 13.154 65.4154 12.7013 64.846 11.796ZM69.634 8.31C69.634 5.846 68.8874 4.614 67.394 4.614C65.8914 4.614 65.14 5.846 65.14 8.31C65.14 9.52333 65.3267 10.466 65.7 11.138C66.0734 11.81 66.638 12.146 67.394 12.146C68.15 12.146 68.71 11.81 69.074 11.138C69.4474 10.466 69.634 9.52333 69.634 8.31ZM75.0833 3.76H75.4893V13H74.3973V5.048L72.3813 5.678L72.1153 4.74L75.0833 3.76Z" fill="white"/>
<rect y="17" width="77" height="1" fill="white"/>
<g opacity="0.35">
<path d="M62.3167 43.796C61.7567 42.8813 61.4767 41.7147 61.4767 40.296C61.4767 38.8773 61.7614 37.7433 62.3307 36.894C62.9094 36.0353 63.7541 35.606 64.8647 35.606C65.9847 35.606 66.8247 36.0353 67.3847 36.894C67.9541 37.7433 68.2387 38.8773 68.2387 40.296C68.2387 41.7147 67.9587 42.8813 67.3987 43.796C66.8387 44.7013 65.9941 45.154 64.8647 45.154C63.7354 45.154 62.8861 44.7013 62.3167 43.796ZM67.1047 40.31C67.1047 37.846 66.3581 36.614 64.8647 36.614C63.3621 36.614 62.6107 37.846 62.6107 40.31C62.6107 41.5233 62.7974 42.466 63.1707 43.138C63.5441 43.81 64.1087 44.146 64.8647 44.146C65.6207 44.146 66.1807 43.81 66.5447 43.138C66.9181 42.466 67.1047 41.5233 67.1047 40.31ZM71.896 44.02H76.25V45H69.824V44.72L73.114 41.22C73.7113 40.5947 74.1313 40.086 74.374 39.694C74.6167 39.2927 74.738 38.882 74.738 38.462C74.738 37.9393 74.5747 37.5007 74.248 37.146C73.9213 36.7913 73.492 36.614 72.96 36.614C72.4 36.614 71.952 36.8007 71.616 37.174C71.28 37.5567 71.112 38.0047 71.112 38.518C71.112 38.7793 71.14 39.036 71.196 39.288H70.076C70.0107 39.0547 69.978 38.784 69.978 38.476C69.978 37.7107 70.258 37.0433 70.818 36.474C71.378 35.8953 72.092 35.606 72.96 35.606C73.8 35.606 74.4953 35.8767 75.046 36.418C75.5967 36.95 75.872 37.6127 75.872 38.406C75.872 38.8447 75.7833 39.2553 75.606 39.638C75.438 40.002 75.2327 40.3427 74.99 40.66C74.7473 40.9773 74.3973 41.3787 73.94 41.864L71.896 44.02Z" fill="white"/>
<rect x="60" y="49" width="17" height="1" fill="white"/>
</g>
<g opacity="0.35">
<path d="M62.6175 75.796C62.0575 74.8813 61.7775 73.7147 61.7775 72.296C61.7775 70.8773 62.0622 69.7433 62.6315 68.894C63.2102 68.0353 64.0548 67.606 65.1655 67.606C66.2855 67.606 67.1255 68.0353 67.6855 68.894C68.2548 69.7433 68.5395 70.8773 68.5395 72.296C68.5395 73.7147 68.2595 74.8813 67.6995 75.796C67.1395 76.7013 66.2948 77.154 65.1655 77.154C64.0362 77.154 63.1868 76.7013 62.6175 75.796ZM67.4055 72.31C67.4055 69.846 66.6588 68.614 65.1655 68.614C63.6628 68.614 62.9115 69.846 62.9115 72.31C62.9115 73.5233 63.0982 74.466 63.4715 75.138C63.8448 75.81 64.4095 76.146 65.1655 76.146C65.9215 76.146 66.4815 75.81 66.8455 75.138C67.2188 74.466 67.4055 73.5233 67.4055 72.31ZM76.2428 74.074C76.2428 74.9793 75.9208 75.7213 75.2768 76.3C74.6421 76.8693 73.8721 77.154 72.9668 77.154C72.2855 77.154 71.6695 76.9813 71.1188 76.636C70.5775 76.2813 70.1481 75.8147 69.8308 75.236L70.6008 74.69C71.2635 75.6607 72.0475 76.146 72.9528 76.146C73.5875 76.146 74.1055 75.9593 74.5068 75.586C74.9081 75.2033 75.1088 74.704 75.1088 74.088C75.1088 73.4907 74.9035 73.024 74.4928 72.688C74.0915 72.352 73.5175 72.184 72.7708 72.184H71.8608V71.862L74.2828 68.768H70.4608V67.76H76.0048V68.082L73.5548 71.232C74.3015 71.3067 74.9361 71.596 75.4588 72.1C75.9815 72.5947 76.2428 73.2527 76.2428 74.074Z" fill="white"/>
<rect x="60" y="81" width="17" height="1" fill="white"/>
</g>
<g opacity="0.35">
<path d="M62.4808 107.796C61.9208 106.881 61.6408 105.715 61.6408 104.296C61.6408 102.877 61.9255 101.743 62.4948 100.894C63.0735 100.035 63.9181 99.606 65.0288 99.606C66.1488 99.606 66.9888 100.035 67.5488 100.894C68.1181 101.743 68.4028 102.877 68.4028 104.296C68.4028 105.715 68.1228 106.881 67.5628 107.796C67.0028 108.701 66.1581 109.154 65.0288 109.154C63.8995 109.154 63.0501 108.701 62.4808 107.796ZM67.2688 104.31C67.2688 101.846 66.5221 100.614 65.0288 100.614C63.5261 100.614 62.7748 101.846 62.7748 104.31C62.7748 105.523 62.9615 106.466 63.3348 107.138C63.7081 107.81 64.2728 108.146 65.0288 108.146C65.7848 108.146 66.3448 107.81 66.7088 107.138C67.0821 106.466 67.2688 105.523 67.2688 104.31ZM76.6941 106.326V107.278H75.3501V109H74.2581V107.278H69.6241V106.97L72.6621 99.76H73.7821L71.0101 106.326H74.2581V103.246H75.3501V106.326H76.6941Z" fill="white"/>
<rect x="60" y="113" width="17" height="1" fill="white"/>
</g>
<g opacity="0.35">
<path d="M62.3851 139.796C61.8251 138.881 61.5451 137.715 61.5451 136.296C61.5451 134.877 61.8298 133.743 62.3991 132.894C62.9778 132.035 63.8224 131.606 64.9331 131.606C66.0531 131.606 66.8931 132.035 67.4531 132.894C68.0224 133.743 68.3071 134.877 68.3071 136.296C68.3071 137.715 68.0271 138.881 67.4671 139.796C66.9071 140.701 66.0624 141.154 64.9331 141.154C63.8038 141.154 62.9544 140.701 62.3851 139.796ZM67.1731 136.31C67.1731 133.846 66.4264 132.614 64.9331 132.614C63.4304 132.614 62.6791 133.846 62.6791 136.31C62.6791 137.523 62.8658 138.466 63.2391 139.138C63.6124 139.81 64.1771 140.146 64.9331 140.146C65.6891 140.146 66.2491 139.81 66.6131 139.138C66.9864 138.466 67.1731 137.523 67.1731 136.31ZM76.2484 138.074C76.2484 138.979 75.9264 139.721 75.2824 140.3C74.6384 140.869 73.8684 141.154 72.9724 141.154C72.263 141.154 71.633 140.986 71.0824 140.65C70.541 140.305 70.107 139.838 69.7804 139.25L70.5364 138.69C71.171 139.661 71.9784 140.146 72.9584 140.146C73.5837 140.146 74.097 139.955 74.4984 139.572C74.909 139.189 75.1144 138.695 75.1144 138.088C75.1144 137.481 74.909 137.01 74.4984 136.674C74.097 136.338 73.5184 136.17 72.7624 136.17H70.6764V131.76H75.7304V132.74H71.7684V135.33C72.235 135.255 72.6737 135.218 73.0844 135.218C73.9897 135.218 74.741 135.465 75.3384 135.96C75.945 136.455 76.2484 137.159 76.2484 138.074Z" fill="white"/>
<rect x="60" y="145" width="17" height="1" fill="white"/>
</g>
</svg>
